tempo=560000 division=192
transpose=1,36
transpose=2,48
differentiate_channels=1
always_zero=1
always_volume=1
always_fullword=1
volume=120
space=16
Chn 1 Note On E5=64  Time=0
Chn 1 Note Off E5=127  Time=80
Chn 1 Note On E5=64  Time=80
Chn 1 Note Off E5=127  Time=160
Chn 1 Note On E6=64  Time=160
Chn 1 Note Off E6=127  Time=240
Chn 1 Note On E6=64  Time=240
Chn 1 Note Off E6=127  Time=280
Chn 1 Note On D6=64  Time=280
Chn 1 Note Off D6=127  Time=360
Chn 1 Note On D6=64  Time=360
Chn 1 Note Off D6=127  Time=400
Chn 1 Note On B5=64  Time=400
Chn 1 Note Off B5=127  Time=480
Chn 1 Note On D6=64  Time=480
Chn 1 Note Off D6=127  Time=560
Chn 1 Note On E6=64  Time=560
Chn 1 Note Off E6=127  Time=640
Chn 1 Note On E5=64  Time=640
Chn 1 Note Off E5=127  Time=720
Chn 1 Note On E5=64  Time=720
Chn 1 Note Off E5=127  Time=800
Chn 1 Note On E6=64  Time=800
Chn 1 Note Off E6=127  Time=880
Chn 1 Note On E6=64  Time=880
Chn 1 Note Off E6=127  Time=920
Chn 1 Note On D6=64  Time=920
Chn 1 Note Off D6=127  Time=1000
Chn 1 Note On D6=64  Time=1000
Chn 1 Note Off D6=127  Time=1040
Chn 1 Note On B5=64  Time=1040
Chn 1 Note Off B5=127  Time=1120
Chn 1 Note On A5=64  Time=1120
Chn 1 Note Off A5=127  Time=1160
Chn 1 Note On A#5=64  Time=1160
Chn 1 Note Off A#5=127  Time=1200
Chn 1 Note On B5=64  Time=1200
Chn 1 Note Off B5=127  Time=1280
Chn 1 Note On E5=64  Time=1280
Chn 1 Note Off E5=127  Time=1360
Chn 1 Note On E5=64  Time=1360
Chn 1 Note Off E5=127  Time=1440
Chn 1 Note On E6=64  Time=1440
Chn 1 Note Off E6=127  Time=1520
Chn 1 Note On E6=64  Time=1520
Chn 1 Note Off E6=127  Time=1560
Chn 1 Note On D6=64  Time=1560
Chn 1 Note Off D6=127  Time=1640
Chn 1 Note On D6=64  Time=1640
Chn 1 Note Off D6=127  Time=1680
Chn 1 Note On B5=64  Time=1680
Chn 1 Note Off B5=127  Time=1760
Chn 1 Note On D6=64  Time=1760
Chn 1 Note Off D6=127  Time=1840
Chn 1 Note On E6=64  Time=1840
Chn 1 Note Off E6=127  Time=1920
Chn 1 Note On E5=64  Time=1920
Chn 1 Note Off E5=127  Time=2000
Chn 1 Note On E5=64  Time=2000
Chn 1 Note Off E5=127  Time=2080
Chn 1 Note On E6=64  Time=2080
Chn 1 Note Off E6=127  Time=2160
Chn 1 Note On E6=64  Time=2160
Chn 1 Note Off E6=127  Time=2200
Chn 1 Note On D6=64  Time=2200
Chn 1 Note Off D6=127  Time=2280
Chn 1 Note On D6=64  Time=2280
Chn 1 Note Off D6=127  Time=2320
Chn 1 Note On B5=64  Time=2320
Chn 1 Note Off B5=127  Time=2400
Chn 1 Note On A5=64  Time=2400
Chn 1 Note Off A5=127  Time=2440
Chn 1 Note On A#5=64  Time=2440
Chn 1 Note Off A#5=127  Time=2480
Chn 1 Note On B5=64  Time=2480
Chn 1 Note Off B5=127  Time=2560
Chn 1 Note On A5=64  Time=2560
Chn 1 Note Off A5=127  Time=2640
Chn 1 Note On A5=64  Time=2640
Chn 1 Note Off A5=127  Time=2720
Chn 1 Note On A6=64  Time=2720
Chn 1 Note Off A6=127  Time=2800
Chn 1 Note On A6=64  Time=2800
Chn 1 Note Off A6=127  Time=2840
Chn 1 Note On G6=64  Time=2840
Chn 1 Note Off G6=127  Time=2920
Chn 1 Note On G6=64  Time=2920
Chn 1 Note Off G6=127  Time=2960
Chn 1 Note On E6=64  Time=2960
Chn 1 Note Off E6=127  Time=3040
Chn 1 Note On G6=64  Time=3040
Chn 1 Note Off G6=127  Time=3120
Chn 1 Note On A6=64  Time=3120
Chn 1 Note Off A6=127  Time=3200
Chn 1 Note On A5=64  Time=3200
Chn 1 Note Off A5=127  Time=3280
Chn 1 Note On A5=64  Time=3280
Chn 1 Note Off A5=127  Time=3360
Chn 1 Note On A6=64  Time=3360
Chn 1 Note Off A6=127  Time=3440
Chn 1 Note On A6=64  Time=3440
Chn 1 Note Off A6=127  Time=3480
Chn 1 Note On G6=64  Time=3480
Chn 1 Note Off G6=127  Time=3560
Chn 1 Note On G6=64  Time=3560
Chn 1 Note Off G6=127  Time=3600
Chn 1 Note On E6=64  Time=3600
Chn 1 Note Off E6=127  Time=3680
Chn 1 Note On D6=64  Time=3680
Chn 1 Note Off D6=127  Time=3720
Chn 1 Note On D#6=64  Time=3720
Chn 1 Note Off D#6=127  Time=3760
Chn 1 Note On E6=64  Time=3760
Chn 1 Note Off E6=127  Time=3840
Chn 1 Note On E5=64  Time=3840
Chn 1 Note Off E5=127  Time=3920
Chn 1 Note On E5=64  Time=3920
Chn 1 Note Off E5=127  Time=4000
Chn 1 Note On E6=64  Time=4000
Chn 1 Note Off E6=127  Time=4080
Chn 1 Note On E6=64  Time=4080
Chn 1 Note Off E6=127  Time=4120
Chn 1 Note On D6=64  Time=4120
Chn 1 Note Off D6=127  Time=4200
Chn 1 Note On D6=64  Time=4200
Chn 1 Note Off D6=127  Time=4240
Chn 1 Note On B5=64  Time=4240
Chn 1 Note Off B5=127  Time=4320
Chn 1 Note On D6=64  Time=4320
Chn 1 Note Off D6=127  Time=4400
Chn 1 Note On E6=64  Time=4400
Chn 1 Note Off E6=127  Time=4480
Chn 1 Note On E5=64  Time=4480
Chn 1 Note Off E5=127  Time=4560
Chn 1 Note On E5=64  Time=4560
Chn 1 Note Off E5=127  Time=4640
Chn 1 Note On E6=64  Time=4640
Chn 1 Note Off E6=127  Time=4720
Chn 1 Note On E6=64  Time=4720
Chn 1 Note Off E6=127  Time=4760
Chn 1 Note On D6=64  Time=4760
Chn 1 Note Off D6=127  Time=4840
Chn 1 Note On D6=64  Time=4840
Chn 1 Note Off D6=127  Time=4880
Chn 1 Note On B5=64  Time=4880
Chn 1 Note Off B5=127  Time=4960
Chn 1 Note On A5=64  Time=4960
Chn 1 Note Off A5=127  Time=5000
Chn 1 Note On A#5=64  Time=5000
Chn 1 Note Off A#5=127  Time=5040
Chn 1 Note On B5=64  Time=5040
Chn 1 Note Off B5=127  Time=5120
Chn 1 Note On B5=64  Time=5120
Chn 1 Note Off B5=127  Time=5200
Chn 1 Note On B5=64  Time=5200
Chn 1 Note Off B5=127  Time=5280
Chn 1 Note On B6=64  Time=5280
Chn 1 Note Off B6=127  Time=5360
Chn 1 Note On B6=64  Time=5360
Chn 1 Note Off B6=127  Time=5400
Chn 1 Note On A6=64  Time=5400
Chn 1 Note Off A6=127  Time=5480
Chn 1 Note On A6=64  Time=5480
Chn 1 Note Off A6=127  Time=5520
Chn 1 Note On F#6=64  Time=5520
Chn 1 Note Off F#6=127  Time=5600
Chn 1 Note On A6=64  Time=5600
Chn 1 Note Off A6=127  Time=5680
Chn 1 Note On B6=64  Time=5680
Chn 1 Note Off B6=127  Time=5760
Chn 1 Note On A5=64  Time=5760
Chn 1 Note Off A5=127  Time=5840
Chn 1 Note On A5=64  Time=5840
Chn 1 Note Off A5=127  Time=5920
Chn 1 Note On A6=64  Time=5920
Chn 1 Note Off A6=127  Time=6000
Chn 1 Note On A6=64  Time=6000
Chn 1 Note Off A6=127  Time=6040
Chn 1 Note On G6=64  Time=6040
Chn 1 Note Off G6=127  Time=6120
Chn 1 Note On G6=64  Time=6120
Chn 1 Note Off G6=127  Time=6160
Chn 1 Note On E6=64  Time=6160
Chn 1 Note Off E6=127  Time=6240
Chn 1 Note On G6=64  Time=6240
Chn 1 Note Off G6=127  Time=6320
Chn 1 Note On A6=64  Time=6320
Chn 1 Note Off A6=127  Time=6400
Chn 1 Note On E5=64  Time=6400
Chn 1 Note Off E5=127  Time=6480
Chn 1 Note On E5=64  Time=6480
Chn 1 Note Off E5=127  Time=6560
Chn 1 Note On E6=64  Time=6560
Chn 1 Note Off E6=127  Time=6640
Chn 1 Note On E6=64  Time=6640
Chn 1 Note Off E6=127  Time=6680
Chn 1 Note On D6=64  Time=6680
Chn 1 Note Off D6=127  Time=6760
Chn 1 Note On D6=64  Time=6760
Chn 1 Note Off D6=127  Time=6800
Chn 1 Note On B5=64  Time=6800
Chn 1 Note Off B5=127  Time=6880
Chn 1 Note On D6=64  Time=6880
Chn 1 Note Off D6=127  Time=6960
Chn 1 Note On E6=64  Time=6960
Chn 1 Note Off E6=127  Time=7040
Chn 1 Note On E5=64  Time=7040
Chn 1 Note Off E5=127  Time=7080
Chn 1 Note On E5=64  Time=7080
Chn 1 Note Off E5=127  Time=7160
Chn 1 Note On E5=64  Time=7160
Chn 1 Note Off E5=127  Time=7200
Chn 1 Note On G#5=64  Time=7200
Chn 1 Note Off G#5=127  Time=7240
Chn 1 Note On G#5=64  Time=7240
Chn 1 Note Off G#5=127  Time=7320
Chn 1 Note On G#5=64  Time=7320
Chn 1 Note Off G#5=127  Time=7360
Chn 1 Note On A5=64  Time=7360
Chn 1 Note Off A5=127  Time=7400
Chn 1 Note On A5=64  Time=7400
Chn 1 Note Off A5=127  Time=7480
Chn 1 Note On A5=64  Time=7480
Chn 1 Note Off A5=127  Time=7520
Chn 1 Note On A#5=64  Time=7520
Chn 1 Note Off A#5=127  Time=7560
Chn 1 Note On A#5=64  Time=7560
Chn 1 Note Off A#5=127  Time=7640
Chn 1 Note On A#5=64  Time=7640
Chn 1 Note Off A#5=127  Time=7680
